#!OML:ASF E:\Steps\Project 1\Capture day 1\Session 2\Subject.ASF
:FULLY-SPECIFIED
:DEGREES
143
root 9.26616 16.2972 19.697 -152.579 -2.69429 179.817
lowerback -31.6815 -1.81149 -5.18848
upperback -3.36844 -1.71294 -0.069364
thorax 12.792 -1.51352 1.93908
lowerneck -3.78877 -4.72702 3.60316
upperneck 2.80519 -6.37048 -5.87056
head 1.21473 -3.27952 -2.61458
rclavicle -1.10325e-014 3.97569e-016
rhumerus -35.0909 -22.2578 -78.8959
rradius 25.5211
rwrist 4.00564
rhand -9.22834 -51.0181
rfingers 7.12502
rthumb 16.7266 -80.3175
lclavicle -1.10325e-014 3.97569e-016
lhumerus -28.149 8.51335 82.4136
lradius 16.027
lwrist -12.1516
lhand -21.6595 -12.3808
lfingers 7.12502
lthumb 4.73757 17.5462
rfemur -23.6715 8.37513 17.7103
rtibia 7.07917
rfoot -19.2827 -6.15753
rtoes -31.2172
lfemur -24.8779 -10.7587 -16.5374
ltibia 7.98511
lfoot -7.85243 1.80615
ltoes -32.606
144
root 9.26644 16.2962 19.6984 -152.583 -2.7019 179.828
lowerback -31.6564 -1.8084 -5.17073
upperback -3.38703 -1.71933 -0.0726985
thorax 12.7603 -1.51583 1.9243
lowerneck -3.8108 -4.7488 3.69312
upperneck 2.78887 -6.40437 -5.99043
head 1.20545 -3.29881 -2.67112
rclavicle -1.68967e-015 -7.95139e-015
rhumerus -35.1559 -22.1912 -78.9305
rradius 25.6188
rwrist 3.90952
rhand -9.25977 -50.7648
rfingers 7.12502
rthumb 16.6964 -80.0668
lclavicle -1.68967e-015 -7.95139e-015
lhumerus -28.1454 8.54221 82.3533
lradius 15.9861
lwrist -12.2173
lhand -21.6905 -12.3228
lfingers 7.12502
lthumb 4.70764 17.6049
rfemur -23.6805 8.48314 17.691
rtibia 7.08678
rfoot -19.2504 -6.21977
rtoes -30.8941
lfemur -24.8873 -10.7402 -16.5221
ltibia 7.99783
lfoot -7.88706 1.74568
ltoes -32.4164
145
root 9.26682 16.2953 19.6998 -152.588 -2.68782 179.824
lowerback -31.6338 -1.79767 -5.19469
upperback -3.4094 -1.70217 -0.0780703
thorax 12.7238 -1.50981 1.93896
lowerneck -3.81239 -4.7748 3.78393
upperneck 2.75992 -6.44395 -6.10066
head 1.18838 -3.32027 -2.72365
rclavicle -1.39149e-015 2.42517e-014
rhumerus -35.2106 -22.3141 -78.8608
rradius 25.602
rwrist 4.02568
rhand -9.31746 -50.8846
rfingers 7.12502
rthumb 16.6408 -80.1913
lclavicle -1.39149e-015 2.42517e-014
lhumerus -28.146 8.46343 82.3613
lradius 15.9251
lwrist -12.0005
lhand -21.6464 -12.4878
lfingers 7.12502
lthumb 4.75024 17.439
rfemur -23.7262 8.56929 17.6806
rtibia 7.20489
rfoot -19.3012 -6.35311
rtoes -31.1331
lfemur -24.8948 -10.7313 -16.5332
ltibia 8.02336
lfoot -7.90088 1.77462
ltoes -33.0812
146
root 9.26699 16.2952 19.701 -152.583 -2.65246 179.827
lowerback -31.6345 -1.77446 -5.20943
upperback -3.41357 -1.66704 -0.0875473
thorax 12.7165 -1.49482 1.95054
lowerneck -3.85649 -4.80692 3.87951
upperneck 2.74349 -6.49267 -6.21188
head 1.18204 -3.34693 -2.77954
rclavicle -1.09332e-015 -3.18055e-015
rhumerus -35.2039 -22.3593 -78.8533
rradius 25.5796
rwrist 4.05396
rhand -9.39804 -51.1036
rfingers 7.12502
rthumb 16.5633 -80.4167
lclavicle -1.09332e-015 -3.18055e-015
lhumerus -28.1202 8.57106 82.309
lradius 15.8787
lwrist -12.171
lhand -21.6255 -12.5545
lfingers 7.12502
lthumb 4.7704 17.3718
rfemur -23.7555 8.58004 17.6891
rtibia 7.25539
rfoot -19.2617 -6.40607
rtoes -31.2416
lfemur -24.8968 -10.7554 -16.5288
ltibia 8.0214
lfoot -7.9011 1.84017
ltoes -33.6233
147
root 9.26705 16.2954 19.7016 -152.596 -2.64222 179.841
lowerback -31.6225 -1.7694 -5.19672
upperback -3.41881 -1.66658 -0.0847172
thorax 12.7055 -1.494 1.94737
lowerneck -3.91392 -4.82305 3.96505
upperneck 2.74197 -6.51959 -6.32615
head 1.18419 -3.36328 -2.8355
rclavicle -4.62174e-015 -1.23246e-014
rhumerus -35.1991 -22.327 -78.8654
rradius 25.5453
rwrist 4.03678
rhand -9.44832 -50.9991
rfingers 7.12502
rthumb 16.5148 -80.3163
lclavicle -4.62174e-015 -1.23246e-014
lhumerus -28.1394 8.67139 82.258
lradius 15.882
lwrist -12.2219
lhand -21.3248 -12.3824
lfingers 7.12502
lthumb 5.06075 17.5372
rfemur -23.6929 8.5963 17.6852
rtibia 7.12082
rfoot -19.1417 -6.33186
rtoes -31.0796
lfemur -24.8608 -10.8057 -16.4957
ltibia 7.95538
lfoot -7.84535 1.87244
ltoes -33.1148
148
root 9.26795 16.2955 19.7026 -152.586 -2.66544 179.853
lowerback -31.6138 -1.77896 -5.19479
upperback -3.44176 -1.68626 -0.0756386
thorax 12.6772 -1.50389 1.94865
lowerneck -3.92809 -4.83878 4.07186
upperneck 2.70598 -6.54715 -6.45251
head 1.1665 -3.37921 -2.89683
rclavicle 5.41688e-015 -1.35174e-014
rhumerus -35.2329 -22.2039 -78.8942
rradius 25.5523
rwrist 3.93008
rhand -9.50913 -51.2437
rfingers 7.12502
rthumb 16.4563 -80.5657
lclavicle 5.41688e-015 -1.35174e-014
lhumerus -28.1922 8.65779 82.2212
lradius 15.9269
lwrist -12.2601
lhand -20.7725 -11.9583
lfingers 7.12502
lthumb 5.59402 17.9478
rfemur -23.6721 8.64925 17.6724
rtibia 7.0287
rfoot -19.1074 -6.32031
rtoes -30.8588
lfemur -24.8777 -10.8159 -16.4606
ltibia 7.94181
lfoot -7.77991 1.86486
ltoes -32.8077
149
root 9.26921 16.2953 19.7043 -152.551 -2.69056 179.83
lowerback -31.6305 -1.79594 -5.23179
upperback -3.44297 -1.69566 -0.0760902
thorax 12.6838 -1.51045 1.96372
lowerneck -4.00449 -4.86189 4.15535
upperneck 2.70505 -6.5842 -6.55749
head 1.17181 -3.40073 -2.95044
rclavicle -8.54774e-015 7.15625e-015
rhumerus -35.2366 -21.9971 -78.9819
rradius 25.653
rwrist 3.68859
rhand -9.52502 -51.5965
rfingers 7.12502
rthumb 16.441 -80.9198
lclavicle -8.54774e-015 7.15625e-015
lhumerus -28.1466 8.60088 82.2214
lradius 15.8717
lwrist -12.3378
lhand -21.4364 -12.589
lfingers 7.12502
lthumb 4.95301 17.3331
rfemur -23.7292 8.75063 17.6124
rtibia 7.05395
rfoot -19.1848 -6.40126
rtoes -30.5328
lfemur -24.9557 -10.7996 -16.4716
ltibia 8.01668
lfoot -7.79333 1.80908
ltoes -32.5538
150
root 9.26987 16.2957 19.7056 -152.561 -2.70226 179.791
lowerback -31.6132 -1.81848 -5.29132
upperback -3.43639 -1.70334 -0.0726571
thorax 12.6852 -1.516 1.99686
lowerneck -4.07723 -4.87952 4.21732
upperneck 2.6884 -6.61402 -6.66786
head 1.17229 -3.41917 -3.00143
rclavicle 5.76476e-015 5.96354e-015
rhumerus -35.2366 -22.1512 -78.8792
rradius 25.5878
rwrist 3.91032
rhand -9.41405 -51.2352
rfingers 7.12502
rthumb 16.5478 -80.5496
lclavicle 5.76476e-015 5.96354e-015
lhumerus -28.111 8.53397 82.2564
lradius 15.7614
lwrist -12.2008
lhand -21.8883 -12.5548
lfingers 7.12502
lthumb 4.51664 17.377
rfemur -23.706 8.83869 17.5481
rtibia 7.02238
rfoot -19.2186 -6.47615
rtoes -30.5085
lfemur -24.9538 -10.8016 -16.5145
ltibia 8.03051
lfoot -7.79497 1.75705
ltoes -32.0482
151
root 9.27026 16.2971 19.7073 -152.606 -2.73119 179.778
lowerback -31.561 -1.85011 -5.32291
upperback -3.43535 -1.73508 -0.0592095
thorax 12.6676 -1.53048 2.0175
lowerneck -4.11987 -4.88653 4.29384
upperneck 2.66935 -6.62949 -6.78291
head 1.16689 -3.42991 -3.05537
rclavicle 8.59744e-015 -1.59028e-015
rhumerus -35.2232 -22.4146 -78.7286
rradius 25.4224
rwrist 4.30543
rhand -9.29712 -50.7727
rfingers 7.12502
rthumb 16.6604 -80.0776
lclavicle 8.59744e-015 -1.59028e-015
lhumerus -28.1474 8.51768 82.2532
lradius 15.7558
lwrist -12.1122
lhand -21.9605 -12.4842
lfingers 7.12502
lthumb 4.44692 17.4491
rfemur -23.6357 8.75063 17.5878
rtibia 7.00899
rfoot -19.1716 -6.53817
rtoes -31.1211
lfemur -24.8954 -10.7957 -16.5406
ltibia 7.98697
lfoot -7.75203 1.7214
ltoes -32.302
152
root 9.27039 16.2976 19.7091 -152.614 -2.74266 179.755
lowerback -31.5584 -1.876 -5.34752
upperback -3.42039 -1.75645 -0.0626677
thorax 12.6853 -1.54055 2.01853
lowerneck -4.16289 -4.89893 4.40767
upperneck 2.63271 -6.65462 -6.90537
head 1.15386 -3.44501 -3.11836
rclavicle -7.10655e-015 1.63003e-014
rhumerus -35.1605 -22.3834 -78.7894
rradius 25.4202
rwrist 4.26348
rhand -9.27604 -50.8394
rfingers 7.12502
rthumb 16.6807 -80.1426
lclavicle -7.10655e-015 1.63003e-014
lhumerus -28.1304 8.49418 82.2259
lradius 15.7774
lwrist -12.0607
lhand -21.8874 -12.2008
lfingers 7.12502
lthumb 4.51745 17.731
rfemur -23.6582 8.64387 17.6021
rtibia 7.08894
rfoot -19.1802 -6.54784
rtoes -31.2004
lfemur -24.886 -10.789 -16.5768
ltibia 7.97662
lfoot -7.75441 1.72903
ltoes -32.6577
